# 3ds Max Wavefront OBJ Exporter v0.97b - (c)2007 guruware
# File Created: 27.11.2021 15:11:50

#
# object AttachedTray
#

v  -0.0743 -0.0248 -0.0248
v  0.0743 -0.0248 -0.0248
v  0.0743 -0.0248 -0.0000
v  -0.0743 -0.0248 -0.0000
v  -0.0743 0.0248 0.0248
v  0.0743 0.0248 0.0248
v  0.0743 0.0248 -0.0000
v  -0.0743 0.0248 -0.0000
v  0.0743 -0.0248 0.0248
v  -0.0743 -0.0248 0.0248
v  0.0743 0.0248 -0.0248
v  -0.0743 0.0248 -0.0248
v  -0.0743 0.0000 0.0248
v  0.0743 0.0000 0.0248
v  0.0743 0.0000 -0.0248
v  -0.0743 0.0000 -0.0248
v  0.0743 0.0000 -0.0000
v  -0.0743 0.0000 -0.0000
# 18 vertices

vn -0.6310 -0.5503 -0.5468
vn 0.6310 -0.5503 -0.5468
vn 0.6305 -0.7762 -0.0018
vn -0.6305 -0.7762 -0.0018
vn -0.6306 0.5518 0.5458
vn 0.6306 0.5518 0.5458
vn 0.6304 0.7762 -0.0018
vn -0.6304 0.7762 -0.0018
vn 0.6306 -0.5517 0.5458
vn -0.6306 -0.5517 0.5458
vn 0.6310 0.5503 -0.5468
vn -0.6310 0.5503 -0.5468
vn -0.6290 0.0000 0.7774
vn 0.6290 0.0000 0.7774
vn 0.6290 0.0000 -0.7774
vn -0.6290 0.0000 -0.7774
vn 1.0000 0.0000 -0.0000
vn -1.0000 0.0000 -0.0000
# 18 vertex normals

vt 0.0976 0.7131 0.0000
vt 0.1136 0.7131 0.0000
vt 0.1136 0.7176 0.0000
vt 0.0976 0.7176 0.0000
vt 0.0976 0.6971 0.0000
vt 0.1136 0.6971 0.0000
vt 0.1136 0.7011 0.0000
vt 0.0976 0.7011 0.0000
vt 0.0976 0.6851 0.0000
vt 0.1136 0.6851 0.0000
vt 0.1136 0.6907 0.0000
vt 0.0976 0.6907 0.0000
vt 0.1136 0.7067 0.0000
vt 0.0976 0.7067 0.0000
vt 0.0976 0.6947 0.0000
vt 0.1136 0.6947 0.0000
vt 0.1136 0.7107 0.0000
vt 0.0976 0.7107 0.0000
vt 0.8942 0.0738 0.0000
vt 0.8926 0.0755 0.0000
vt 0.8914 0.0727 0.0000
vt 0.9441 0.4023 0.0000
vt 0.9441 0.4000 0.0000
vt 0.9469 0.4011 0.0000
vt 0.8886 0.0716 0.0000
vt 0.8902 0.0699 0.0000
vt 0.9497 0.3999 0.0000
vt 0.9497 0.4022 0.0000
vt 0.8942 0.0715 0.0000
vt 0.9457 0.3983 0.0000
vt 0.8886 0.0739 0.0000
vt 0.9481 0.4039 0.0000
vt 0.9480 0.3983 0.0000
vt 0.8925 0.0699 0.0000
vt 0.8903 0.0755 0.0000
vt 0.9458 0.4039 0.0000
# 36 texture coords

o AttachedTray
g AttachedTray
s 1
f 1/1/1 2/2/2 3/3/3 4/4/4 
f 5/5/5 6/6/6 7/7/7 8/8/8 
f 4/9/4 3/10/3 9/11/9 10/12/10 
f 8/8/8 7/7/7 11/13/11 12/14/12 
f 13/15/13 14/16/14 6/6/6 5/5/5 
f 15/17/15 16/18/16 12/14/12 11/13/11 
f 2/2/2 1/1/1 16/18/16 15/17/15 
f 10/12/10 9/11/9 14/16/14 13/15/13 
f 3/19/3 2/20/2 17/21/17 
f 1/22/1 4/23/4 18/24/18 
f 7/25/7 6/26/6 17/21/17 
f 5/27/5 8/28/8 18/24/18 
f 9/29/9 3/19/3 17/21/17 
f 4/23/4 10/30/10 18/24/18 
f 11/31/11 7/25/7 17/21/17 
f 8/28/8 12/32/12 18/24/18 
f 10/30/10 13/33/13 18/24/18 
f 6/26/6 14/34/14 17/21/17 
f 13/33/13 5/27/5 18/24/18 
f 15/35/15 11/31/11 17/21/17 
f 12/32/12 16/36/16 18/24/18 
f 16/36/16 1/22/1 18/24/18 
f 2/20/2 15/35/15 17/21/17 
f 14/34/14 9/29/9 17/21/17 
# 8 polygons - 16 triangles

