# 3ds Max Wavefront OBJ Exporter v0.97b - (c)2007 guruware
# File Created: 27.11.2021 15:33:57

#
# object LigneFood_small_3
#

v  -0.4924 -0.3765 1.0716
v  0.4924 -0.3765 1.0716
v  0.4924 0.2317 1.0716
v  -0.4924 0.2317 1.0716
v  -0.5793 0.2317 1.1875
v  0.5793 0.2317 1.1875
v  0.5793 0.3476 1.1875
v  -0.5793 0.3476 1.1875
v  -0.4924 0.2317 -1.0716
v  -0.5793 0.2317 -1.1875
v  0.5793 0.2317 -1.1875
v  0.4924 0.2317 -1.0716
v  -0.5793 0.3476 -1.1875
v  0.5793 0.3476 -1.1875
v  -0.4924 -0.3765 -1.0716
v  0.4924 -0.3765 -1.0716
v  -0.1738 0.3476 -1.0137
v  0.4055 0.3476 -1.0137
v  -0.1738 0.3476 0.9558
v  0.4055 0.3476 0.9558
v  -0.1738 0.3765 -1.0137
v  -0.1738 0.3765 0.9558
v  0.4055 0.3765 0.9558
v  0.4055 0.3765 -1.0137
# 24 vertices

vn -0.5774 -0.5774 0.5774
vn 0.5774 -0.5774 0.5774
vn 0.3015 -0.9045 0.3015
vn -0.3015 -0.9045 0.3015
vn 0.5774 0.5774 0.5774
vn -0.5774 0.5774 0.5774
vn -0.3015 -0.9045 -0.3015
vn -0.5774 -0.5774 -0.5774
vn 0.5774 -0.5774 -0.5774
vn 0.3015 -0.9045 -0.3015
vn -0.5774 0.5774 -0.5774
vn 0.5774 0.5774 -0.5774
vn -0.3015 0.9045 -0.3015
vn 0.3015 0.9045 -0.3015
vn -0.3015 0.9045 0.3015
vn 0.3015 0.9045 0.3015
# 16 vertex normals

vt 0.0884 0.2329 0.0000
vt 0.0884 0.1353 0.0000
vt 0.1481 0.1208 0.0000
vt 0.1481 0.1659 0.0000
vt 0.0098 0.0048 0.0000
vt 0.1225 0.0028 0.0000
vt 0.1226 0.0117 0.0000
vt 0.0099 0.0137 0.0000
vt 0.7879 0.3066 0.0000
vt 0.8076 0.3657 0.0000
vt 0.7776 0.3588 0.0000
vt 0.7776 0.2641 0.0000
vt 0.9908 0.3066 0.0000
vt 0.9845 0.2642 0.0000
vt 0.9845 0.3759 0.0000
vt 0.9909 0.3656 0.0000
vt 0.4608 0.0005 0.0000
vt 0.4608 0.0094 0.0000
vt 0.3480 0.0094 0.0000
vt 0.3480 0.0005 0.0000
vt 0.0884 0.4254 0.0000
vt 0.1481 0.4411 0.0000
vt 0.1481 0.5118 0.0000
vt 0.0884 0.4812 0.0000
vt 0.8099 0.9007 0.0000
vt 0.8497 0.8840 0.0000
vt 0.9054 0.8840 0.0000
vt 0.9227 0.9008 0.0000
vt 0.6863 0.0015 0.0000
vt 0.6863 0.0104 0.0000
vt 0.8910 0.0921 0.0000
vt 0.6666 0.0703 0.0000
vt 0.6922 0.0329 0.0000
vt 0.8781 0.0509 0.0000
vt 0.9944 0.2617 0.0000
vt 0.9025 0.2617 0.0000
vt 0.9025 0.0283 0.0000
vt 0.9526 0.0539 0.0000
vt 0.2878 0.7396 0.0000
vt 0.1010 0.7394 0.0000
vt 0.0791 0.7221 0.0000
vt 0.3046 0.7223 0.0000
vt 0.0884 0.6938 0.0000
vt 0.1481 0.6220 0.0000
vt 0.1455 0.7012 0.0000
vt 0.1115 0.6712 0.0000
vt 0.2216 0.6956 0.0000
vt 0.2000 0.7133 0.0000
vt 0.9412 0.6252 0.0000
vt 0.7544 0.6252 0.0000
vt 0.7544 0.5694 0.0000
vt 0.9412 0.5694 0.0000
vt 0.0743 0.8781 0.0000
vt 0.0051 0.8781 0.0000
vt 0.0051 0.8747 0.0000
vt 0.0743 0.8747 0.0000
vt 0.2052 0.8781 0.0000
vt 0.2052 0.8747 0.0000
vt 0.3361 0.8781 0.0000
vt 0.3361 0.8747 0.0000
vt 0.4876 0.8781 0.0000
vt 0.4876 0.8747 0.0000
# 62 texture coords

o LigneFood_small_3
g LigneFood_small_3
s 1
f 1/1/1 2/2/2 3/3/3 4/4/4 
f 5/5/1 6/6/2 7/7/5 8/8/6 
f 4/9/4 3/10/3 6/11/2 5/12/1 
f 9/13/7 10/14/8 11/15/9 12/16/10 
f 10/17/8 13/18/11 14/19/12 11/20/9 
f 15/21/8 9/22/7 12/23/10 16/24/9 
f 13/25/11 17/26/13 18/27/14 14/28/12 
f 9/13/7 4/9/4 5/12/1 10/14/8 
f 10/17/8 5/29/1 8/30/6 13/18/11 
f 15/21/8 1/1/1 4/4/4 9/22/7 
f 13/31/11 8/32/6 19/33/15 17/34/13 
f 15/35/8 16/36/9 2/37/2 1/38/1 
f 18/39/14 20/40/16 7/41/5 14/42/12 
f 2/43/2 16/24/9 12/23/10 3/44/3 
f 6/6/2 11/20/9 14/19/12 7/7/5 
f 3/10/3 12/16/10 11/15/9 6/11/2 
f 19/45/15 8/46/6 7/47/5 20/48/16 
f 21/49/11 22/50/6 23/51/5 24/52/12 
f 18/53/14 17/54/13 21/55/11 24/56/12 
f 20/57/16 18/53/14 24/56/12 23/58/5 
f 19/59/15 20/57/16 23/58/5 22/60/6 
f 17/61/13 19/59/15 22/60/6 21/62/11 
# 22 polygons

