# 3ds Max Wavefront OBJ Exporter v0.97b - (c)2007 guruware
# File Created: 27.11.2021 15:34:56

#
# object Traysupport_2
#

v  -0.1738 0.0579 -1.5061
v  -0.1738 -0.0579 -1.5061
v  -0.2027 -0.0579 -1.5061
v  -0.2027 0.0579 -1.5061
v  0.0290 -0.0579 -1.5061
v  0.0290 -0.0579 1.5061
v  -0.0290 -0.0579 1.5061
v  -0.0290 -0.0579 -1.5061
v  0.0290 0.0579 1.5061
v  0.1738 -0.0579 1.5061
v  0.1738 0.0579 1.5061
v  -0.0290 0.0579 -1.5061
v  -0.0290 0.0579 1.5061
v  0.1738 -0.0579 -1.5061
v  0.2027 -0.0579 -1.5061
v  0.2027 -0.0579 1.5061
v  0.2027 0.0579 1.5061
v  -0.1738 0.0579 1.5061
v  -0.2027 0.0579 1.5061
v  -0.2027 -0.0579 1.5061
v  -0.1738 -0.0579 1.5061
v  0.0290 0.0579 -1.5061
v  0.1738 0.0579 -1.5061
v  0.2027 0.0579 -1.5061
# 24 vertices

vn 0.1532 0.5288 -0.8348
vn 0.0000 -0.7071 -0.7071
vn -0.5774 -0.5774 -0.5774
vn -0.6298 0.2996 -0.7167
vn 0.0000 -0.7071 0.7071
vn 0.1531 0.5288 0.8348
vn -0.1531 0.5288 0.8348
vn -0.1532 0.5288 -0.8348
vn 0.5774 -0.5774 -0.5774
vn 0.5774 -0.5774 0.5774
vn 0.6297 0.2997 0.7167
vn -0.6297 0.2997 0.7167
vn -0.5774 -0.5774 0.5774
vn 0.6298 0.2996 -0.7167
vn 0.6308 0.7179 0.2945
vn 0.6309 0.7178 -0.2945
vn -0.6309 0.7178 -0.2945
vn -0.6308 0.7179 0.2945
# 18 vertex normals

vt 0.3937 0.4544 0.0000
vt 0.4015 0.4544 0.0000
vt 0.4015 0.4596 0.0000
vt 0.3937 0.4596 0.0000
vt 0.7090 0.4685 0.0000
vt 0.4214 0.4685 0.0000
vt 0.4214 0.4635 0.0000
vt 0.7089 0.4635 0.0000
vt 0.4109 0.1235 0.0000
vt 0.4029 0.1235 0.0000
vt 0.4029 0.1214 0.0000
vt 0.4109 0.1214 0.0000
vt 0.3937 0.4483 0.0000
vt 0.4015 0.4483 0.0000
vt 0.4109 0.1297 0.0000
vt 0.4029 0.1297 0.0000
vt 0.7090 0.4824 0.0000
vt 0.4214 0.4824 0.0000
vt 0.7090 0.4874 0.0000
vt 0.4215 0.4874 0.0000
vt 0.4029 0.1161 0.0000
vt 0.4109 0.1161 0.0000
vt 0.4109 0.1363 0.0000
vt 0.4109 0.2448 0.0000
vt 0.4029 0.2448 0.0000
vt 0.4029 0.1363 0.0000
vt 0.4109 0.4591 0.0000
vt 0.4029 0.4591 0.0000
vt 0.7099 0.3890 0.0000
vt 0.7099 0.4030 0.0000
vt 0.4214 0.4030 0.0000
vt 0.4214 0.3890 0.0000
vt 0.7090 0.4445 0.0000
vt 0.7089 0.4496 0.0000
vt 0.4214 0.4496 0.0000
vt 0.4214 0.4445 0.0000
vt 0.3937 0.4421 0.0000
vt 0.3937 0.4356 0.0000
vt 0.4015 0.4356 0.0000
vt 0.4015 0.4421 0.0000
vt 0.3937 0.3283 0.0000
vt 0.4015 0.3283 0.0000
vt 0.4214 0.4075 0.0000
vt 0.7099 0.4075 0.0000
vt 0.7099 0.4215 0.0000
vt 0.4214 0.4215 0.0000
vt 0.3937 0.1161 0.0000
vt 0.4015 0.1161 0.0000
vt 0.7043 0.4358 0.0000
vt 0.4264 0.4358 0.0000
vt 0.4264 0.4310 0.0000
vt 0.7043 0.4310 0.0000
vt 0.4264 0.3755 0.0000
vt 0.7057 0.3770 0.0000
vt 0.7057 0.3819 0.0000
vt 0.4264 0.3804 0.0000
vt 0.7057 0.3570 0.0000
vt 0.7057 0.3619 0.0000
vt 0.4264 0.3619 0.0000
vt 0.4264 0.3570 0.0000
# 60 texture coords

o Traysupport_2
g Traysupport_2
s 1
f 1/1/1 2/2/2 3/3/3 4/4/4 
f 5/5/2 6/6/5 7/7/5 8/8/2 
f 9/9/6 6/10/5 10/11/5 11/12/7 
f 12/13/8 8/14/2 2/2/2 1/1/1 
f 13/15/7 7/16/5 6/10/5 9/9/6 
f 14/17/2 10/18/5 6/6/5 5/5/2 
f 15/19/9 16/20/10 10/18/5 14/17/2 
f 11/12/7 10/11/5 16/21/10 17/22/11 
f 18/23/6 19/24/12 20/25/13 21/26/5 
f 19/24/12 4/27/4 3/28/3 20/25/13 
f 18/29/6 13/30/7 12/31/8 1/32/1 
f 3/33/3 2/34/2 21/35/5 20/36/13 
f 2/34/2 8/8/2 7/7/5 21/35/5 
f 13/15/7 18/23/6 21/26/5 7/16/5 
f 22/37/1 23/38/8 14/39/2 5/40/2 
f 12/13/8 22/37/1 5/40/2 8/14/2 
f 23/38/8 24/41/14 15/42/9 14/39/2 
f 11/43/7 23/44/8 22/45/1 9/46/6 
f 17/47/11 16/48/10 15/42/9 24/41/14 
f 9/49/15 22/50/16 12/51/17 13/52/18 
f 17/53/15 24/54/16 23/55/17 11/56/18 
f 19/57/18 18/58/15 1/59/16 4/60/17 
# 22 polygons

