# 3ds Max Wavefront OBJ Exporter v0.97b - (c)2007 guruware
# File Created: 27.11.2021 15:34:48

#
# object traySupport_1
#

v  -0.1738 0.0579 -1.2164
v  -0.2027 -0.0579 -1.2164
v  -0.2027 0.0579 -1.2164
v  0.0290 0.0579 1.2164
v  -0.0290 -0.0579 1.2164
v  0.2027 -0.0579 1.2164
v  0.1738 0.0579 1.2164
v  -0.0290 0.0579 -1.2164
v  -0.0290 -0.0579 -1.2164
v  -0.0290 0.0579 1.2164
v  0.2027 -0.0579 -1.2164
v  0.2027 0.0579 1.2164
v  -0.1738 0.0579 1.2164
v  -0.2027 0.0579 1.2164
v  -0.2027 -0.0579 1.2164
v  0.0290 0.0579 -1.2164
v  0.1738 0.0579 -1.2164
v  0.2027 0.0579 -1.2164
# 18 vertices

vn 0.1718 0.5008 -0.8484
vn -0.5774 -0.5774 -0.5774
vn -0.6384 0.2601 -0.7245
vn 0.1732 0.4985 0.8494
vn 0.0000 -0.7071 0.7071
vn 0.5774 -0.5774 0.5774
vn -0.1732 0.4985 0.8494
vn -0.1718 0.5008 -0.8484
vn 0.0000 -0.7071 -0.7071
vn 0.5774 -0.5774 -0.5774
vn 0.6391 0.2570 0.7250
vn -0.6391 0.2570 0.7250
vn -0.5774 -0.5774 0.5774
vn 0.6384 0.2601 -0.7245
vn 0.6219 0.7069 0.3369
vn 0.6225 0.7078 -0.3338
vn -0.6225 0.7078 -0.3338
vn -0.6219 0.7069 0.3369
# 18 vertex normals

vt 0.6571 0.4908 0.0000
vt 0.6534 0.5015 0.0000
vt 0.6534 0.4908 0.0000
vt 0.9718 0.0132 0.0000
vt 0.9745 0.0239 0.0000
vt 0.9541 0.0237 0.0000
vt 0.9578 0.0130 0.0000
vt 0.6710 0.4908 0.0000
vt 0.6710 0.5015 0.0000
vt 0.9746 0.0133 0.0000
vt 0.6534 0.5797 0.0000
vt 0.4214 0.5797 0.0000
vt 0.4214 0.5593 0.0000
vt 0.6534 0.5593 0.0000
vt 0.9542 0.0130 0.0000
vt 0.9886 0.0135 0.0000
vt 0.9922 0.0135 0.0000
vt 0.9921 0.0242 0.0000
vt 0.4214 0.4908 0.0000
vt 0.4214 0.5015 0.0000
vt 0.4214 0.5371 0.0000
vt 0.4215 0.5232 0.0000
vt 0.6536 0.5252 0.0000
vt 0.6534 0.5392 0.0000
vt 0.6534 0.5417 0.0000
vt 0.4214 0.5417 0.0000
vt 0.6739 0.4908 0.0000
vt 0.6878 0.4908 0.0000
vt 0.6914 0.5015 0.0000
vt 0.6914 0.4908 0.0000
vt 0.4215 0.5047 0.0000
vt 0.6536 0.5067 0.0000
vt 0.6534 0.5207 0.0000
vt 0.4214 0.5186 0.0000
vt 0.7221 0.0204 0.0000
vt 0.7222 0.0098 0.0000
vt 0.4852 0.2774 0.0000
vt 0.7102 0.2794 0.0000
vt 0.7102 0.2834 0.0000
vt 0.4852 0.2813 0.0000
vt 0.4801 0.3191 0.0000
vt 0.7064 0.3211 0.0000
vt 0.7064 0.3250 0.0000
vt 0.4801 0.3230 0.0000
vt 0.4801 0.2999 0.0000
vt 0.4801 0.2959 0.0000
vt 0.7064 0.2979 0.0000
vt 0.7064 0.3019 0.0000
# 48 texture coords

o traySupport_1
g traySupport_1
s 1
f 1/1/1 2/2/2 3/3/3 
f 4/4/4 5/5/5 6/6/6 7/7/7 
f 8/8/8 9/9/9 2/2/2 1/1/1 
f 10/10/7 5/5/5 4/4/4 
f 11/11/10 6/12/6 5/13/5 9/14/9 
f 7/7/7 6/6/6 12/15/11 
f 13/16/4 14/17/12 15/18/13 
f 14/19/12 3/3/3 2/2/2 15/20/13 
f 13/21/4 10/22/7 8/23/8 1/24/1 
f 2/25/2 9/14/9 5/13/5 15/26/13 
f 10/10/7 13/16/4 15/18/13 5/5/5 
f 16/27/1 17/28/8 11/29/10 9/9/9 
f 8/8/8 16/27/1 9/9/9 
f 17/28/8 18/30/14 11/29/10 
f 7/31/7 17/32/8 16/33/1 4/34/4 
f 12/15/11 6/6/6 11/35/10 18/36/14 
f 4/37/15 16/38/16 8/39/17 10/40/18 
f 12/41/15 18/42/16 17/43/17 7/44/18 
f 14/45/18 13/46/15 1/47/16 3/48/17 
# 13 polygons - 6 triangles

