# 3ds Max Wavefront OBJ Exporter v0.97b - (c)2007 guruware
# File Created: 24.11.2021 00:55:18

#
# object cafet_table_2_low
#

v  -0.1393 0.0131 0.2547
v  0.1393 0.0131 0.2547
v  0.0000 0.1320 -0.1085
v  -0.0816 0.0131 -0.1085
v  0.0816 0.0131 -0.1085
v  0.2082 0.3850 -0.4304
v  0.0000 0.2996 -0.2258
v  -0.2082 0.3850 -0.4304
v  0.2106 0.3957 0.4100
v  -0.2106 0.3957 0.4100
v  0.0000 0.3103 0.4304
# 11 vertices

vn -0.6589 -0.1119 0.7439
vn 0.6589 -0.1119 0.7439
vn -0.0338 0.7936 0.6075
vn -0.7549 -0.5711 -0.3224
vn 0.7510 -0.5817 -0.3123
vn 0.7444 0.2540 -0.6175
vn -0.0323 -0.5494 0.8350
vn -0.7486 0.2495 -0.6143
vn 0.8375 0.1743 0.5178
vn -0.8395 0.1734 0.5150
vn -0.0011 -0.6882 0.7255
# 11 vertex normals

vt 0.7674 0.7413 0.0000
vt 0.7450 0.8431 0.0000
vt 0.5431 0.7452 0.0000
vt 0.7407 0.5731 0.0000
vt 0.5816 0.5182 0.0000
vt 0.6861 0.3220 0.0000
vt 0.7794 0.3542 0.0000
vt 0.6120 0.6825 0.0000
vt 0.5792 0.8311 0.0000
vt 0.2534 0.8330 0.0000
vt 0.4093 0.7157 0.0000
vt 0.4196 0.6751 0.0000
vt 0.2938 0.5260 0.0000
vt 0.6110 0.6005 0.0000
vt 0.5566 0.6762 0.0000
vt 0.7108 0.0161 0.0000
vt 0.9486 0.0982 0.0000
vt 0.0010 0.2555 0.0000
vt 0.0010 0.0010 0.0000
vt 0.0541 0.1282 0.0000
vt 0.2582 0.9800 0.0000
vt 0.2484 0.8340 0.0000
vt 0.6693 0.8409 0.0000
vt 0.7973 0.9882 0.0000
vt 0.1035 0.0010 0.0000
vt 0.3552 0.0578 0.0000
vt 0.2228 0.9990 0.0000
vt 0.0010 0.7361 0.0000
vt 0.4582 0.0161 0.0000
vt 0.6988 0.0992 0.0000
vt 0.5317 0.5788 0.0000
vt 0.2938 0.4967 0.0000
# 32 texture coords

o cafet_table_2_low
g cafet_table_2_low
s 16
f 1/1/1 2/2/2 3/3/3 
s 32
f 2/4/2 1/5/1 4/6/4 
f 4/6/4 5/7/5 2/4/2 
s 16
f 4/8/4 1/1/1 3/3/3 
f 2/2/2 5/9/5 3/3/3 
f 6/10/6 7/11/7 3/3/3 
f 3/3/3 5/9/5 6/10/6 
s 2
f 7/12/7 8/13/8 4/14/4 
f 4/14/4 3/15/3 7/12/7 
s 32
f 8/16/8 6/17/6 5/7/5 
f 5/7/5 4/6/4 8/16/8 
s 2
f 9/18/9 10/19/10 11/20/11 
s 8
f 9/21/9 11/22/11 7/23/7 
f 7/23/7 6/24/6 9/21/9 
s 1
f 11/25/11 10/26/10 8/27/8 
f 8/27/8 7/28/7 11/25/11 
s 4
f 10/29/10 9/30/9 6/31/6 
f 6/31/6 8/32/8 10/29/10 
# 0 polygons - 18 triangles

